<svg xmlns="http://www.w3.org/2000/svg" viewBox="0 0 48 48" fill="none">
  <defs>
    <linearGradient id="grad" x1="0" y1="0" x2="48" y2="48">
      <stop offset="0%" stop-color="#6366f1"/>
      <stop offset="100%" stop-color="#06b6d4"/>
    </linearGradient>
  </defs>
  <rect width="48" height="48" rx="12" fill="url(#grad)"/>
  <path d="M14 16C14 14.8954 14.8954 14 16 14H20C21.1046 14 22 14.8954 22 16V32C22 33.1046 21.1046 34 20 34H16C14.8954 34 14 33.1046 14 32V16Z" fill="white" opacity="0.9"/>
  <path d="M26 14H28C29.1046 14 30 14.8954 30 16V24C30 25.1046 30.8954 26 32 26H34" stroke="white" stroke-width="2.5" stroke-linecap="round" opacity="0.9"/>
  <path d="M26 22H34" stroke="white" stroke-width="2.5" stroke-linecap="round" opacity="0.7"/>
  <path d="M26 30H34" stroke="white" stroke-width="2.5" stroke-linecap="round" opacity="0.5"/>
</svg>
